<svg xmlns="http://www.w3.org/2000/svg" width="715.755" height="710" viewBox="0 0 715.755 710">
  <metadata><?xpacket begin="﻿" id="W5M0MpCehiHzreSzNTczkc9d"?>
<x:xmpmeta xmlns:x="adobe:ns:meta/" x:xmptk="Adobe XMP Core 5.6-c138 79.159824, 2016/09/14-01:09:01        ">
   <rdf:RDF xmlns:rdf="http://www.w3.org/1999/02/22-rdf-syntax-ns#">
      <rdf:Description rdf:about=""/>
   </rdf:RDF>
</x:xmpmeta>
                                                                                                    
                                                                                                    
                                                                                                    
                                                                                                    
                                                                                                    
                                                                                                    
                                                                                                    
                                                                                                    
                                                                                                    
                                                                                                    
                                                                                                    
                                                                                                    
                                                                                                    
                                                                                                    
                                                                                                    
                                                                                                    
                                                                                                    
                                                                                                    
                                                                                                    
                                                                                                    
                           
<?xpacket end="w"?></metadata>
<defs>
    <style>
      .cls-1 {
        fill: red;
        fill-rule: evenodd;
        opacity: 0.05;
      }
    </style>
  </defs>
  <path id="phone" class="cls-1" d="M1131.26,2445.88c-45.73,0-104.77-30.51-146.247-56.11-55.54-34.29-115.377-81.72-168.488-133.55l-0.195-.19-16.859-16.9c-51.748-53.2-99.1-113.14-133.332-168.77-25.554-41.55-56.024-100.68-56.024-146.49,0-49.02,35-101.05,50.04-121.14,11.738-15.69,52.755-66.85,87.608-66.85,14.3,0,29.714,9.38,49.972,30.43,17.915,18.6,35.107,41.73,46.368,57.85a624.529,624.529,0,0,1,39.408,63.82c16.644,31.6,18.566,45.15,18.566,52.59,0,15.02-7.832,28.04-23.269,38.72-10.168,7.02-22.376,12.31-34.177,17.42-7.965,3.45-20.676,8.96-25.528,12.83,1.7,7.17,9.09,24.51,29.071,53.9,18.622,27.38,42.7,57.06,64.45,79.43a624.342,624.342,0,0,0,79.307,64.56c29.319,20.01,46.629,27.42,53.8,29.12,3.86-4.86,9.36-17.59,12.8-25.56,5.11-11.83,10.39-24.06,17.41-34.25,10.65-15.46,23.65-23.3,38.65-23.3,7.43,0,20.96,1.92,52.49,18.59a623.5,623.5,0,0,1,63.72,39.48c16.1,11.28,39.19,28.5,57.76,46.44,21,20.29,30.37,35.73,30.37,50.06,0,34.91-51.07,76-66.73,87.75-20.07,15.08-72.01,50.12-120.94,50.12h0ZM845.826,2226.29C896.78,2276,954,2321.38,1006.97,2354.07c51.36,31.71,96.66,49.9,124.29,49.9,24.61,0,59.69-15.06,93.85-40.27,14.97-11.06,28.6-23.37,38.37-34.66,9.17-10.61,12.52-17.53,13.38-20.32-3.55-7.63-24.6-31.47-73.72-65.42a573.153,573.153,0,0,0-56.11-34.46c-21.23-11.18-30.08-13.11-32.1-13.43-0.79.55-3.1,2.48-6.62,8.39-3.93,6.6-7.71,15.36-11.37,23.83-4.5,10.43-9.16,21.21-14.86,29.91-9.29,14.14-20.7,21.33-33.9,21.33-0.24,0-.49,0-0.74-0.01-6.42-.14-25.99-0.55-79.085-36.78-29.308-20-61.145-45.93-85.141-69.38l-0.375-.37c-23.4-24.05-49.29-55.93-69.263-85.29-36.165-53.19-36.587-72.78-36.72-79.22-0.285-13.47,6.809-25.08,21.074-34.55,8.728-5.79,19.58-10.49,30.08-15.04,8.453-3.66,17.187-7.45,23.785-11.38,5.89-3.52,7.837-5.83,8.368-6.63-0.316-2.03-2.246-10.89-13.4-32.15a572.832,572.832,0,0,0-34.4-56.2c-33.895-49.22-57.7-70.3-65.3-73.85-2.793.86-9.7,4.22-20.291,13.4-11.281,9.78-23.566,23.44-34.6,38.44-25.177,34.21-40.2,69.35-40.2,94,0,27.67,18.145,73.05,49.8,124.49,32.645,53.07,77.947,110.39,127.573,161.42ZM1094.9,2075.85a15.357,15.357,0,0,1-15.09-12.7c-3.75-21.32-16.07-39.84-34.7-52.16-18.89-12.49-41.98-17.13-65.031-13.06a15.363,15.363,0,0,1-5.325-30.26c30.8-5.44,61.786.84,87.256,17.68,25.73,17.01,42.79,42.75,48.02,72.47a15.366,15.366,0,0,1-12.45,17.8,15.159,15.159,0,0,1-2.68.23h0Zm92.34-39.67a15.349,15.349,0,0,1-15.09-12.7c-7.28-41.37-31.15-77.3-67.21-101.13-36.32-24.02-80.66-32.95-124.861-25.14a15.362,15.362,0,0,1-5.321-30.26c51.952-9.17,104.192,1.39,147.082,29.76,43.16,28.53,71.76,71.66,80.52,121.44a15.359,15.359,0,0,1-12.44,17.8,16.258,16.258,0,0,1-2.68.23h0Zm123.28-11.45a15.359,15.359,0,0,1-15.09-12.7c-12.43-70.61-53.12-131.89-114.59-172.52-61.74-40.82-137.06-55.99-212.09-42.74a15.362,15.362,0,0,1-5.317-30.26c82.787-14.63,166,2.19,234.3,47.35,68.58,45.34,114,113.82,127.91,192.83a15.349,15.349,0,0,1-12.44,17.79,14.456,14.456,0,0,1-2.68.25h0Zm0,0" transform="translate(-610.125 -1735.88)"/>
</svg>
